<?xml version="1.0" encoding="UTF-8"?><svg id="Capa_1" xmlns="http://www.w3.org/2000/svg" width="48" height="48" viewBox="0 0 48 48"><path d="M6.34,22.66c.08-.03.16-.06.24-.1-.19-.15-.38-.29-.58-.44.03-.06.06-.11.1-.18.13.05.24.09.39.14-.05-.1-.09-.17-.15-.29.26-.18.5-.35.78-.54-.17.01-.32.03-.51.04-.07-.35-.15-.69-.22-1.05.14-.06.22-.09.41-.17-.03.23-.05.38-.09.6.18-.14.35-.27.52-.4-.06-.15-.12-.3-.17-.43.1-.15.2-.29.33-.49.16.05.36.12.64.21-.19.76-.37,1.51-.56,2.26,0,0,0,0-.01,0-.12.46-.26.92-.36,1.39-.12.59-.19,1.2-.28,1.8-.05.32-.08.65-.12.97-.04.33-.05.65-.11.98-.14.8-.22,1.62-.46,2.39-.17.57-.54,1.08-.86,1.68,0,.01.03.12.06.28-.78.88-1.76,1.12-2.92.87.02-.04.04-.09.04-.07-.6-.47-1.17-.93-1.43-1.8-.82-.95-.73-2.29-1.04-3.57.1-.08.22-.17.35-.28.17-.39.34-.82.54-1.23.05-.11.17-.22.28-.27.33-.17.68-.31,1.02-.45.06-.03.14-.04.2-.03.46.12.91.25,1.37.37.1.03.19.05.27.06.02.51.05,1.01.07,1.64-.24.39-.27,1.08-.81,1.51-.17-.11-.31-.21-.45-.31-.07.04-.16.1-.27.17-.05-.11-.09-.2-.11-.25.07-.49.13-.93.19-1.37.03,0,.06-.01.08-.02-.1-.16-.2-.32-.31-.49-.23.07-.44.14-.6.18-.16.39-.29.71-.44,1.09.07.13.17.3.26.48.16,1.05.2,2.16,1.4,2.74.36-.03.76-.07,1.03-.09.29-.39.5-.67.63-.86.19-.36.33-.62.42-.8.15-1.06.3-2.03.45-3.04-.03-.3-.06-.64-.09-1.02.17-.27.33-.53.18-.94-.13-.37.03-.79.23-1.15h.11c0,.11.02.2.03.33.11-.04.21-.07.31-.1.01.05.03.1.04.15l.05-.02s-.07-.08-.1-.12ZM3.06,27.32s-.01.07-.02.1l.18.02s0-.05.01-.07c-.06-.02-.12-.03-.18-.05ZM2.53,25.25s.02.04.03.05c.04-.02.08-.04.12-.06,0-.02-.02-.04-.03-.05-.04.02-.08.04-.12.06ZM5.99,23.74s0,.05,0,.07c.03,0,.06-.02.1-.03,0-.01,0-.03,0-.04h-.09ZM6.35,23.05c.06-.02.04-.02,0,0,.04,0,.06,0,0,0ZM6.15,23.1v.05s.06-.01.09-.02l-.02-.05s-.05.02-.07.03ZM6.46,24.24v-.02s-.04,0-.07,0c0,0,0,.01,0,.02.02,0,.05,0,.07,0ZM6.19,23.62v-.02s-.02,0-.02,0h.02Z"/><path d="M12.76,21.8c.04-.09.08-.18.14-.31-.11-.06-.23-.11-.35-.17q-.05-.25.82-.31c.71.48,1.09,1.11,1.04,1.95-.08.5-.15,1-.23,1.5-.06.37-.23.64-.53.9-.36.32-.61.77-.96,1.23-.41.29-.89.62-1.33.93-.34-.04-.64-.05-.94-.1-.3-.06-.61-.14-.76-.46-.14-.2-.28-.4-.37-.54-.25-.78-.47-1.46-.69-2.14.07-.43.15-.86.23-1.31-.09-.04-.17-.07-.34-.14.22-.09.36-.16.48-.21.51-1.53,1.33-2.73,3.14-3.15.27.05.68.12,1.09.19.01.05.03.1.04.15-.13.14-.23.35-.39.41-.37.14-.78.21-1.16.32-.08.02-.15.09-.26.15-.08-.01-.19-.02-.31-.04-.02-.08-.04-.14-.07-.29-.06.18-.09.29-.09.29-.17.16-.27.25-.37.35-.05-.01-.09-.02-.14-.03,0,.02,0,.04,0,.05l.14-.03c.15-.06.31-.12.46-.19-.11.29-.22.55-.32.82.02,0,.04.01.06.02-.17.15-.34.29-.51.44.03,0,.05.02.08.02-.14.39-.29.78-.42,1.14-.16.06-.25.1-.39.16.05.18.11.36.17.59,0,.02-.02.12-.08.19-.24.27-.09.38.14.59.24.22.37.57.6.95.14,0,.37-.01.6,0,.19.01.38.05.56.09.47.12.63.03.87-.4.16-.29.38-.54.64-.78.03-.18.05-.36.08-.55.16-.11.32-.22.49-.33.01-.09.03-.2.06-.35-.43-.26-.27-.68-.2-1.09-.26-.18-.5-.35-.74-.52h0ZM9.38,22.7c-.05.18-.1.35-.15.52.02.01.05.03.07.04.13-.14.27-.28.43-.45-.17-.06-.26-.09-.35-.11ZM10.18,21.45s.06.05.09.08c.04-.06.08-.11.11-.17-.02-.01-.03-.03-.05-.04-.05.04-.1.09-.15.13Z"/><path d="M30.33,22.34c.35.11.7.22,1.06.33h1.09s.09.15.15.26c.14-.03.27-.07.4-.1,0,.03-.01.05,0,0-.01.06,0,.04,0,.01.15-.08.29-.2.44-.23.38-.07.85.1,1.08-.46v-1.54c-.23-.04-.44-.08-.69-.12.02.35.04.62.06.93-.08.05-.16.11-.26.18-.13-.1-.23-.18-.34-.26v-.41c.06-.1.13-.21.21-.34-.07-.09-.13-.17-.17-.23.14-.15.24-.31.39-.4.11-.07.27-.07.41-.08.17-.02.35-.03.52-.05l.02-.12c.2.07.39.14.49.18.08.38.13.64.2.94.03.36.06.78.09,1.06-.12.43-.25.75-.3,1.09-.1.63-.47.92-1.16.86-.59-.05-1.18-.13-1.77-.13-.4,0-.79.12-1.19.19-.25.04-.51.07-.67.1-.36-.34-.68-.59-.94-.89-.11-.13-.13-.36-.16-.54-.02-.15-.03-.31,0-.46.09-.53.19-1.05.29-1.56.36-.16.39-.37.19-.62.15-.07.28-.13.4-.2,0-.02-.01-.04-.02-.07-.09,0-.19-.01-.39-.02.14-.3.27-.57.39-.84.03.06.06.12.09.18.03-.03.05-.06.08-.09-.06-.03-.12-.06-.18-.08.06-.31.12-.63.18-.94.03,0,.06,0,.08.01v.37c.15-.07.25-.12.35-.17,0,0,0,0,0,0,.08.06.16.11.23.16.07-.05.17-.13.28-.21,0-.03,0-.05,0-.08-.14.02-.28.03-.46.05-.01,0-.05-.04-.12-.1.09-.05.15-.09.29-.18h-.57c.22-.32.4-.58.63-.93,0,.01,0-.08.01-.24.25-.06.5-.13.77-.2-.1-.03-.22-.06-.34-.09-.01-.04-.03-.07-.04-.11.31-.14.61-.28.93-.43.13.1.23.17.33.25-.24.52-.47,1.01-.7,1.5.05.1.11.2.18.32-.07.09-.14.18-.22.29.06.07.12.14.11.13-.29.69-.55,1.34-.82,1.98-.21.49-.43.97-.63,1.45-.1.23-.16.48-.24.72,0,0-.02,0-.02,0h.01ZM29.77,20.85s0-.08,0-.02c-.04-.05-.01-.02.01.01.02.07.04.13.07.2.03-.02.06-.05.09-.07-.06-.04-.11-.08-.17-.12ZM31.79,17.79c-.12-.05-.24-.1-.42-.17.07.21.1.32.18.55.11-.18.17-.29.23-.39.01-.04.02-.09.04-.13-.02,0-.04,0-.06,0,.01.05.02.1.03.14ZM30.79,19.71s0,0,0-.01c0,0-.01,0-.02,0-.06-.18-.11-.36-.18-.58-.15.02-.27.03-.39.05,0,.02,0,.04,0,.07.09.02.18.05.29.08.03.12.06.25.09.37.07,0,.14.01.21.02ZM31.61,18.25s-.05-.03-.08-.04c-.2.14-.4.27-.59.41-.1-.05-.17-.09-.24-.12-.07-.02-.15-.02-.23-.04-.01.08-.02.14-.02.19-.01.06-.03.12-.03.14.19.04.36.08.54.11-.06.12-.1.19-.13.26l.08.05c.09-.12.18-.24.27-.36-.02-.01-.04-.03-.05-.04.09-.03.19-.07.26-.1.09-.17.16-.32.24-.46ZM31.38,16.72s-.02.09-.03.14c.12.01.24.02.36.03,0-.04,0-.08.01-.12-.11-.02-.23-.04-.34-.06ZM34.44,20.26s-.02.06-.03.1c.08.02.16.05.23.07,0-.03.02-.06.02-.09-.07-.03-.15-.05-.22-.08ZM29.68,21.93s0,.03,0,.04c.06,0,.11,0,.17.01,0-.02,0-.03,0-.05-.06,0-.11,0-.17,0ZM32.01,16.1s-.04,0-.06,0c.02.03.03.06.05.09.01,0,.02,0,.03-.01,0-.03-.01-.06-.02-.09ZM30.82,17.37c0-.08,0-.04,0,0,.02-.03.04-.06,0,0ZM31.48,17.11s-.05,0-.07,0c0,.04.02.07.03.11h.04v-.11ZM31.1,17.01s.03.03.05.04c.01-.03.03-.05.1-.18-.11.1-.13.12-.15.14ZM30.09,22.68s.02,0,.03-.01c0,0,0-.02,0-.03,0,0-.02,0-.03.01,0,0,0,.02,0,.03ZM30.67,23.04s.04.02.05.02c0,0,0-.02,0-.03-.02,0-.04,0-.06,0ZM34.44,20.01s0,.01-.01.02c.01,0,.02,0,.03-.01,0,0-.01,0-.02-.01ZM32.18,23.19l-.02-.02v.02s.02,0,.02,0ZM32.02,22.98v.02s.02,0,.02,0h-.02Z"/><path d="M39.72,21.01c-.17.32-.3.56-.45.85.12-.03.19-.05.29-.07.07.12.14.25.22.39-.33.07-.64.15-.96.21-.11.02-.27.03-.33-.02-.52-.47-.94-.07-1.42.11-.06.27-.13.53-.19.8.31.09.59.17.87.25,0-.02,0-.04,0-.06.33-.04.66-.07,1.01-.11.02-.11.05-.23.1-.42.59.22.92.7,1.4,1.13-.24.24-.44.45-.66.67-.55-.39-1.07-.22-1.61-.18-.51.04-1.04-.19-1.56-.29,0-.04.02-.08.03-.12-.13-.22-.26-.45-.45-.78.05-.34.11-.79.18-1.25.58-1.14,1.73-.99,2.78-1.28-.02-.09-.06-.24-.11-.45.03-.24.06-.56.09-.88.08-.03.15-.06.18-.07-.04-.27-.08-.51-.13-.87.38.12.62.2.87.28v.95c.19.4-.02,1.03.58,1.42.1-.35.2-.67.29-.99.12-.03.22-.06.28-.08-.08-.13-.15-.25-.26-.41.89-.03,1.15.14,1.17.69-.36.17-.44.39-.24.73.21.35.16.67.07,1.06-.1.44.03.92.07,1.53-.19.09-.46.21-.7.32-.63-.22-.88-1.12-.59-1.95-.08-.05-.16-.1-.24-.16v-.52c-.16-.12-.33-.26-.56-.44ZM40.93,21.15s0,.05-.01.08c.06,0,.12.02.18.03,0-.02,0-.04,0-.06-.06-.02-.11-.03-.17-.05ZM41.28,20.07s.03-.02.05-.03c-.03-.04-.06-.08-.08-.11-.02.01-.03.02-.05.03.03.04.05.08.08.11ZM36.17,22.78s.04,0,.06-.01c0-.02.02-.05.01-.06-.03-.02-.06-.02-.09-.03,0,.03.01.07.02.1ZM41.01,20.8s.03-.04.05-.05c-.03-.03-.07-.06-.1-.09-.02.02-.03.04-.05.06.03.03.07.06.1.09ZM39.16,20.33s-.04-.02-.05-.03c0,0-.02.02-.02.02,0,.02.02.03.03.04.01-.01.03-.02.04-.04ZM37.64,21.29h.02s-.02-.02-.02-.02v.02ZM40.68,20.97v-.02s0,0,0,0v.02Z"/><path d="M23.69,21.97c.08,0,.16.01.24.02-.14.15-.26.27-.44.46.26-.08.43-.13.54-.16.37.44.7.82,1.01,1.2.36.44.32.95.26,1.48-.1.86-.6,1.53-.97,2.27-.07.15-.27.24-.34.31-.17.32-.29.57-.4.77-.31.2-.56.38-.82.55-.41.26-.82.51-1.23.76-.05.03-.1.04-.16.05-.72.13-1.94-.41-2.26-1.03-.03-.24-.11-.48-.07-.7.03-.21.19-.4.37-.56v-.29c.28-.04.55-.08.96-.13.16.12.41.31.73.54-.4.21-.67.36-.98.52.2.22.35.38.49.53.4.09.77.2,1.14-.07.31-.23.66-.42,1-.63.01-.57.95-1.78,1.56-1.93-.06-.11-.11-.2-.18-.31.05-.03.11-.07.16-.11,0,0,0-.02,0-.02v.03c0-.27-.01-.55-.03-.82,0-.16-.02-.31-.03-.49-.13-.02-.24-.04-.4-.07.11-.12.19-.21.29-.32-.52-.52-1.01-1-1.49-1.48.03-.02.06-.05.02-.01.03-.05,0-.02,0,.02-.07-.05-.14-.11-.22-.18.12-.11.22-.2.33-.3-.06-.12-.12-.24-.18-.35.09-.36.17-.72.29-1.2.15-.27.37-.66.62-1.1.18.14.36.28.54.43,0,.02,0,.04,0,.02.01.01,0,0-.01-.02.17-.07.34-.14.51-.21.02.03.04.06.06.09.08-.11.16-.23.26-.37.14.03.29.07.42.11.13.21.25.4.36.59-.04.13-.07.24-.1.35.04,0,.07,0,.11,0-.01.22-.02.44-.04.66,0,0,0,0,0,0-.08.06-.17.11-.26.17.03.08.06.15.09.24-.12.04-.23.08-.39.13-.19-.22-.38-.45-.59-.7.13-.1.25-.19.42-.31h.35s0-.04.01-.06c-.13-.02-.26-.04-.46-.08.03-.16.06-.31.11-.52-.06-.04-.16-.11-.19-.13-.14.09-.23.14-.32.19h0s.02-.06.03-.09c-.02-.02-.03-.03-.05-.05-.18.16-.36.33-.54.49l.06.08c-.1.02-.21.05-.31.07-.02-.03-.04-.06-.05-.08.09-.06.18-.13.39-.27-.08-.08-.16-.15-.23-.23,0,.05-.02.1-.03.15-.09.15-.17.31-.26.46-.05-.05-.1-.11-.15-.16.16.13.31.27.48.41-.13.19-.24.35-.36.53.13.09.22.16.34.25,0,.07-.01.15-.02.33-.07-.14-.11-.2-.14-.28-.16.01-.32.03-.51.05.09.22.15.38.23.58.09-.07.17-.13.27-.2.04.06.09.13.14.19,0,0,.02,0,.03,0,0-.02,0-.05,0-.07h0ZM19.93,28.36h0s.05.02.01,0c.05,0,.01,0-.02,0ZM24.48,23.76v.07s.06,0,.09,0c0-.01,0-.03,0-.04-.03,0-.06-.01-.09-.02ZM24.14,23.26s.04-.02.06-.02c-.02-.02-.03-.04-.1-.11.03.1.04.11.05.13ZM24.67,23.2c-.09-.01-.07,0,0,0-.06-.03-.08-.05,0,0ZM20.19,28.95s-.01-.03-.02-.04c0,0-.01.02,0,.02,0,0,.02,0,.03.01ZM23.86,22.57s0,.01,0,.02c.02,0,.04.02.06.02,0,0,0-.02,0-.02l-.06-.02ZM24.31,23.09s.05.04.07.05c0,0,.01-.02.02-.02-.02,0-.03,0-.08-.02ZM25.08,20.58v.02s.02,0,.02,0h-.02ZM24.54,25.69v.02s.02-.02.02-.02h-.02ZM24.61,25.95s0,.02-.01.03c.01,0,.02-.01.03-.02,0,0-.02,0-.02,0ZM25.15,20.05h.02s0,0,0,0h-.02Z"/><path d="M44.64,23.65c.11.02.22.04.4.06.07-.16.15-.34.25-.56.17.03.39.06.61.1,0-.01,0-.02,0-.03.15-.01.29-.03.47-.04,0,.01.02-.03.05-.09.08.06.15.11.19.14.15-.08.29-.15.42-.21.37.48.69.9.96,1.24v.81c-.6.35-.83-.42-1.31-.52-.41.06-.85.19-1.29.17-.42-.02-.83-.18-1.3-.29-.21-.11-.48-.25-.88-.45-.05-.23-.22-.58-.16-.87.17-.8.65-1.12,1.46-1.2.51-.05,1.02-.13,1.57-.21-.07-.12-.12-.2-.13-.22.05-.27.1-.49.14-.71.51-.38.42-1.3-.19-1.82-.3.3-.6.6-.9.9-.03-.02-.06-.05-.09-.07-.05.17-.1.33-.16.53-.16.21-.33.46-.53.73-.08,0-.18-.01-.31-.03v.25c-.1.05-.21.1-.35.17-.09-.08-.18-.16-.26-.23.02-.19.04-.36.06-.62.19.11.34.19.52.29-.11-.28-.21-.53-.32-.82.04-.06.1-.13.16-.22h.33c.2.08.36.15.58.25-.01-.17-.02-.28-.03-.36-.22-.02-.41-.04-.61-.06-.04-.12-.08-.22-.13-.37.15-.04.27-.07.37-.1.29-.32.6-.65.94-1.02.08.14.15.25.22.37.18-.11.36-.22.55-.34.4.32.75.6,1.13.9-.15.14-.22.21-.37.35.18.04.28.07.46.11.01.15.03.36.05.58.07.1.16.23.28.41-.17.04-.26.06-.33.08-.13.22-.25.43-.42.72.08.13.21.35.35.58-.25.48-1.21.98-1.77.7-.22.03-.39.05-.59.08-.09.13-.2.3-.31.45.07.17.13.32.21.51ZM47.49,24.67h0s0,0,0,0ZM47.05,20.09s-.06-.09-.09-.14c-.11.07-.22.14-.32.22.02.03.04.06.06.09.12-.06.24-.11.36-.17ZM44.15,22.61s0,.06,0,.1c.07,0,.13,0,.2,0,0-.02,0-.05,0-.07-.06,0-.13-.01-.19-.02ZM44.34,20.33s.05-.02.08-.03c-.03-.05-.05-.09-.08-.14-.02,0-.03.02-.05.03.02.05.03.1.05.14ZM46.44,21.26s-.02-.05-.04-.07c-.04.02-.08.04-.13.06,0,.02.01.03.02.05.05-.01.09-.03.14-.04ZM47.04,23.33s0-.04,0-.06h-.09s0,.03,0,.04c.03,0,.06.01.08.02ZM44.18,22.52s0-.02,0-.02h-.07s0,.01,0,.02c.02,0,.05,0,.07,0Z"/><path d="M17.45,21.55c.29-.32.58-.64.89-.99.15.1.36.25.57.39.02-.02.03-.03.05-.05-.07-.08-.14-.16-.22-.24-.08-.08-.16-.15-.25-.22,0-.05,0-.1.01-.16.28-.07.56-.14.87-.23v-.19c.11,0,.2.02.29.02.08.18.15.33.22.49-.04.03-.08.07-.09.07.1.12.19.24.29.36-.03.03-.06.06-.09.09-.13-.05-.25-.1-.41-.15.03.14.05.24.08.35.21-.05.41-.09.65-.14-.03.15-.06.3-.09.48.04.04.11.11.18.2-.08.07-.16.14-.15.13.08.49.15.91.22,1.34-.35.33-.65.69-1.02.92-.34.21-.76.29-1.15.43.19.18.39.37.59.56.3.04.63.09.98.15.11-.47.76-.06.93-.3.23-.53.4-.93.56-1.3-.14-.21-.25-.39-.34-.53.13-.37.23-.7.35-1.05.32-.03.66-.17.95.1.2.2.1.86-.13,1.11-.09.1-.2.21-.22.32-.07.44-.08.89-.16,1.32-.05.26-.17.5-.28.78-.09.03-.22.07-.34.1-.36.48-.99.69-1.59.63-.67-.36-1.16-.62-1.68-.9-.27-.56-.56-1.17-.85-1.79-.03-.07-.03-.18-.02-.26.06-.44.12-.89.19-1.33.03-.18.07-.35.1-.53.03,0,.05,0,.08,0ZM20.07,25.36s0,0,0,0c.03-.02.05-.05.08-.07.06-.03.12-.06.19-.09l-.05-.06c-.04.05-.08.11-.13.16-.03.02-.05.05-.08.07ZM19.61,21.71c-.2-.1-.38-.18-.57-.28-.1.07-.19.15-.28.21-.1-.02-.19-.03-.31-.05-.05.16-.09.31-.14.47-.1.07-.21.14-.37.25.06.23.12.47.18.68.98.5,1.51.18,1.66-.95-.06-.11-.11-.22-.17-.34ZM18.45,21.24c.05-.02.11-.04.16-.06-.05-.11-.09-.22-.14-.32-.03.01-.06.02-.09.03.02.12.05.23.07.35ZM18.36,24.99s-.03.02-.05.03c.03.07.06.14.1.21.03-.02.05-.03.08-.05-.04-.06-.08-.13-.13-.19ZM19.02,25.5s-.05.04-.07.05c.03.03.07.06.1.1.02-.01.03-.03.05-.04l-.08-.11ZM18.26,23.45s.02,0,0,0c.02,0,.05.02,0,0ZM17.78,23.01s0-.05,0-.07c-.03,0-.07.02-.1.03,0,.01,0,.03,0,.04h.11ZM18.43,23.99s0-.05,0-.07c-.03,0-.06,0-.09,0,0,.01,0,.03,0,.04.03,0,.06.01.09.02ZM20.98,25.14s.02,0,0,0c0,.02,0,.04,0,0ZM19.84,21.66s0-.02,0-.02c0,0-.01,0-.02,0,0,0,0,.02,0,.02,0,0,.01,0,.02,0ZM19.8,21.47v.02s.02,0,.02,0h-.02ZM18.37,21.49s-.03,0-.04-.01c0,0,0,.02,0,.02,0,0,.02,0,.03,0Z"/><path d="M16.46,22.76c.05.04.16.1.15.12-.16.47.03.99-.24,1.44-.21.34-.4.7-.6,1.04-.03-.03-.06-.05-.09-.08-.24.01-.48.02-.81.04.02-.45.02-.9.08-1.34.09-.63.22-1.25.34-1.87,0-.04.05-.07.08-.1.16.07.32.15.48.22.01-.04.03-.07.04-.11-.17-.04-.35-.07-.52-.11.17-.35.39-.69.5-1.06.08-.26.02-.56.02-.92.1-.04.25-.11.47-.21,0-.01.07-.1.13-.19.44.22.56.5.49,1.06-.15.02-.29.05-.44.07,0,.02,0,.05,0,.07.11.02.22.05.3.06-.1.2-.18.37-.27.54-.16-.06-.32-.12-.48-.18,0,.06-.02.12-.03.18.17,0,.34,0,.51,0,.06.05.12.11.18.16-.13.14-.25.27-.44.46.13.03.23.06.36.09,0,.04,0,.14.02.28-.12.04-.23.09-.34.13,0-.08,0-.16,0-.24-.05-.03-.09-.06-.14-.1-.08.06-.15.13-.23.19.04.05.08.1.12.15.08,0,.17,0,.25-.01.04.07.07.14.11.21-.1.02-.2.04-.3.05l-.48-.41s-.04.04-.06.07c.06.07.11.14.21.27-.08.04-.15.07-.21.1.01.01.02.03.03.04.17-.03.35-.05.52-.08.1-.02.19-.03.29-.05ZM16.53,20.3s.07,0,.11.01c0-.08,0-.16.01-.24h-.09c-.01.07-.02.15-.04.23ZM15.97,23.05s-.02.02-.02.03c.02.02.04.03.06.05,0,0,.02-.02.02-.03-.02-.02-.04-.03-.06-.05ZM16.04,23.67s-.05,0,0,0c-.06.01-.04,0,0,0ZM16.13,21.96v-.02s0,0,0,0v.02Z"/><path d="M12.75,21.79c-.19.16-.39.3-.55.48-.2.22-.35.48-.53.73.5.5.46,1.11.54,1.68.02.11-.15.25-.23.38-.38-.45-.7-.83-1.03-1.22-.03.01-.05.03-.08.04,0-.1.02-.19.03-.3.09,0,.15.01.32.02-.19-.09-.28-.13-.43-.2.02-.15.05-.31.08-.53-.02-.05-.07-.16-.14-.32.09-.11.2-.23.3-.36.11.14.23.27.36.43.04-.02.1-.06.24-.14-.24-.11-.42-.19-.6-.28.06-.06.13-.13.19-.19,0,0,.02-.01.02-.01,0,0-.02.01-.02.01.05-.16.09-.32.14-.47.23-.09.44-.18.68-.28.02.02.08.08.13.14-.06.17-.13.34-.23.62.21-.19.34-.31.46-.41.09.05.23.12.37.19,0,0,0,0,0,0ZM11.58,22.99s-.02-.04-.03-.06c-.04.02-.09.04-.13.06l.03.06s.09-.04.13-.06ZM11.49,21.67s.03.01.04.02c-.01,0-.03-.01-.04-.02ZM11.56,21.94c-.02.05-.02.07,0,0,0,.07,0,.06,0,0ZM11.19,23.06s-.03,0-.04,0c.01,0,.03,0,.04,0Z"/><path d="M15.99,17.03c.06-.06.11-.13.19-.16.15-.07.31-.13.49-.2-.08-.14-.13-.21-.2-.33h1.07v.46c.57.4-.18.63-.1.95-.03.19-.05.35-.07.52h-.34c-.13.12-.27.24-.5.45-.09-.3-.16-.53-.23-.76-.1,0-.23.02-.31.02,0-.33,0-.63,0-.93.02,0,.04.02,0,0,.05.01.03,0,0,0ZM16.63,17.7s-.02-.07-.03-.11c-.08.02-.16.05-.24.07,0,.03.02.06.02.09.08-.02.17-.03.25-.05ZM16.31,17.05s.02.07.03.11c.07-.02.15-.04.22-.06-.01-.04-.02-.07-.03-.11-.07.02-.15.04-.22.06Z"/><path d="M38.38,18.97c-.1.04-.2.08-.36.14.11.07.2.12.31.19-.06.05-.12.09-.18.14-.06-.02-.12-.04-.19-.06,0,.02,0,.04,0,.07.07,0,.14,0,.2-.01-.24.22-.49.43-.74.66-.03.11-.02.32-.12.4-.11.09-.32.06-.48.09-.06-.37-.11-.66-.16-.95.18-.31.35-.61.51-.89.18-.09.34-.17.55-.27h.76c.15.2.28.37.42.56-.22.17-.38.15-.52-.06,0,0,.02,0,.02,0,0,0-.02,0-.02,0Z"/><path d="M27.82,23.35c-.37.13-.74.27-1.09.39-.14-.17-.23-.27-.31-.37.02,0,.05-.01.07-.02-.04-.22-.07-.45-.11-.67-.06-.35.18-.55.42-.66.21-.1.56-.14.72-.03.19.13.29.45.34.71.04.17-.06.37-.1.56.02.03.04.07.05.1Z"/><path d="M7.77,17.29c-.1.03-.17.05-.22.06.05.12.11.24.18.38h.23s0,.07,0,.11h-.76c-.02.06-.05.15-.13.35-.06-.29-.1-.49-.13-.66.04-.43.08-.85.12-1.32.1-.06.25-.15.43-.26.09.07.19.14.31.24-.12.07-.2.12-.35.21.1.28.2.56.32.89Z"/><path d="M41.54,18.47c.06-.15.1-.24.11-.28-.1-.28-.19-.51-.29-.81.21.05.34.08.41.09.4.32.56.67.39,1.18-.4-.31-.66.02-.97.21-.08-.1-.14-.18-.24-.3.08-.19.17-.38.26-.58.05,0,.09.01.14.02.05.13.1.26.18.46Z"/><path d="M42.42,17.59c.19-.04.38-.08.61-.12-.02.14-.03.25-.05.39-.2-.04-.38-.08-.56-.12,0-.05,0-.1,0-.15Z"/><path d="M24.06,20.18c.08-.04.16-.08.23-.12.01.03.03.06.04.09-.08.04-.16.07-.24.11-.01-.03-.03-.06-.04-.09Z"/><path d="M17.72,20.79s-.09.09-.14.13c-.02-.02-.04-.04-.06-.06.04-.05.09-.1.13-.14.02.02.05.05.07.07Z"/><path d="M41.84,19.23c0-.07.02-.14.03-.21.02,0,.05,0,.07,0,0,.07,0,.14.01.21-.04,0-.07,0-.11,0Z"/><path d="M28.22,22.71s.1-.02.14-.04c0,.02.01.04.02.07-.05.01-.1.02-.14.03,0-.02-.01-.04-.02-.06Z"/><path d="M30.73,18.06h-.2s0-.05,0-.07c.06.02.13.05.19.07,0,0,0,0,0,0Z"/><path d="M20.58,20.27s.04.05.05.08c-.03.03-.05.05-.08.08,0-.04-.02-.07-.03-.11.02-.02.03-.04.05-.05Z"/><path d="M23.69,21.97l.04-.14s.02,0,.03.01c-.02.04-.05.09-.07.13,0,0,0,0,0,0Z"/><path d="M24.4,19.82s.02.09.02.14c0,0-.02,0-.02,0,0-.05,0-.09,0-.14,0,0,0,0,0,0Z"/><path d="M18.39,20.1h.08s0,.02,0,.02c-.03,0-.05,0-.08,0,0,0,0-.01,0-.02Z"/><path d="M20.51,20.74s0-.02.01-.03c0,.01.01.02.02.04,0,0-.02,0-.03-.01Z"/><path d="M16.81,21.21s.05,0,0,0c.04,0,.03,0,0,0Z"/><polygon points="25.62 20.89 25.61 20.9 25.63 20.88 25.62 20.89"/><path d="M31.15,18.62s.06-.03.08-.04c0,.01.02.03.02.04-.03.02-.05.04-.08.05,0-.02-.02-.03-.03-.05Z"/></svg>